<!-- <svg
   width="1.3742067in"
   height="1.9566923in"
   viewBox="0 0 34.904849 49.699986"
   id="svg5"
   xml:space="preserve">
   <defs id="defs2" />
     <g
      id="layer1"
      transform="translate(-9.2581083,-0.67925112)"><path
       style="fill:#000000;stroke-width:0.0622381"
       d="M 25.285701,50.344817 C 23.725919,50.214046 22.03439,49.831771 20.579465,49.28123 15.001136,47.170419 10.874695,42.400931 9.6268183,36.621773 9.3442153,35.312941 9.2632804,34.526932 9.2583593,33.043083 9.2534772,31.488695 9.3161629,31.032818 9.7611924,29.402152 11.164592,24.2599 15.489831,16.384681 22.135253,6.8719465 c 1.790079,-2.562454 4.47464,-6.19269536 4.579488,-6.19269536 0.07011,0 1.650314,2.10329446 3.089851,4.11256336 6.910528,9.6455395 11.622319,17.8640895 13.453564,23.4663975 0.66854,2.045278 0.904491,3.357986 0.904803,5.033824 7.03e-4,3.796541 -1.489704,7.775085 -4.056823,10.829433 -2.84689,3.387228 -6.791454,5.551224 -11.182855,6.134963 -0.855954,0.113782 -2.777731,0.160474 -3.63758,0.08837 z"
       id="path307" />
    </g>
</svg> -->
<!-- 
<svg xmlns="http://www.w3.org/2000/svg" viewBox="0 0 264.564 264.564">
  <path class="logo-path" d="M132.281,264.564c51.24,0,92.931-41.681,92.931-92.918c0-50.18-87.094-164.069-90.803-168.891L132.281,0l-2.128,2.773c-3.704,4.813-90.802,118.71-90.802,168.882C39.352,222.883,81.042,264.564,132.281,264.564z"
  fill="#42b9f5" stroke="white" stroke-width="2px"/>
</svg> -->

<!-- <svg xmlns="http://www.w3.org/2000/svg" viewBox="0 0 470.34 470.34">
  <path class="logo-path" d="M235.169,470.34c99.262,0,180.016-80.756,180.016-180.018c0-41.055-28.979-101.928-86.129-180.933
		C287.262,51.617,244.866,4.585,244.442,4.117C242.072,1.496,238.705,0,235.17,0c-3.534,0-6.903,1.496-9.273,4.117
		c-0.423,0.469-42.819,47.5-84.613,105.272c-57.152,79.004-86.13,139.878-86.13,180.933
		C55.152,389.584,135.907,470.34,235.169,470.34z M161.41,124.223c29.423-40.688,59.156-75.953,73.761-92.8
		c14.578,16.813,44.227,51.977,73.628,92.621c53.244,73.6,81.387,131.099,81.387,166.278c0,85.477-69.541,155.018-155.017,155.018
		c-85.477,0-155.017-69.541-155.017-155.018C80.152,255.173,108.251,197.736,161.41,124.223z"
  fill="red" stroke="white" stroke-width="2px"/>
</svg> -->

<!-- <svg
   fill="#000000"
   x="0px"
   y="0px"
   version="1.1"
   id="Capa_1"
   width="2000"
   height="2000"
   viewBox="0 0 440 450"
   xml:space="preserve"
   xmlns="http://www.w3.org/2000/svg"
   xmlns:svg="http://www.w3.org/2000/svg"><defs
   id="defs9" />
<g
   id="g4">
	<path
   d="m 243.24781,447.38033 c 87.51852,0 158.7187,-71.20193 158.7187,-158.72043 0,-36.19787 -25.55056,-89.86914 -75.93928,-159.52721 -36.84943,-50.937113 -74.22962,-92.404855 -74.60349,-92.817487 -2.08961,-2.310915 -5.05827,-3.629926 -8.17503,-3.629926 -3.11591,0 -6.08633,1.319011 -8.17594,3.629926 -0.37298,0.413514 -37.7532,41.880374 -74.60262,92.817487 -50.39046,69.65721 -75.94013,123.32934 -75.94013,159.52721 -0.002,87.5185 71.1993,158.72043 158.71779,158.72043 z"
   id="path2"
   style="fill:#00ffff;stroke:#0000ff;stroke-width:6.07111;stroke-dasharray:none" />
</g>
</svg> -->

<svg
   fill="#000000"
   x="0px"
   y="0px"
   version="1.1"
   id="Capa_1"
   width="4.5362363in"
   height="5.9000006in"
   viewBox="0 0 256.0288 333.00075"
   xml:space="preserve"
   xmlns="http://www.w3.org/2000/svg"
   xmlns:svg="http://www.w3.org/2000/svg"><defs
   id="defs9" />
<g
  id="g4"
  transform="translate(-41.307995,-2.8220415)">
>
	<path
   d="m 169.32204,333.42037 c 69.26348,0 125.61238,-56.35029 125.61238,-125.61375 0,-28.64755 -20.2211,-71.1238 -60.09949,-126.252247 C 205.67173,41.241965 176.08848,8.4237665 175.7926,8.0972035 c -1.65375,-1.828892 -4.0032,-2.872777 -6.46985,-2.872777 -2.46598,0 -4.81681,1.043885 -6.47056,2.872777 -0.29518,0.327261 -29.87846,33.1447615 -59.04165,73.4571695 -39.879764,55.127767 -60.100162,97.604697 -60.100162,126.252247 -0.0016,69.26346 56.348212,125.61375 125.611662,125.61375 z"
   id="path2"
   style="fill:#6cb3c8;stroke:#d8e0fc;stroke-width:6.07111;stroke-dasharray:none" />
</g>
</svg>